<svg xmlns="http://www.w3.org/2000/svg" viewBox="0 0 400 266.667">
  <path fill="#212529" fill-rule="evenodd" d="M140.464 68.914c-1.303.465-1.727.836-2.346 2.05-.426.834-.64 59.469-.262 71.36.02.626 1.629 2.159 2.729 2.599 1.262.505 6.921.523 68.968.224 33.128-.16 33.154-.16 33.986-.721 2.046-1.379 1.891 1.504 1.835-34.243l-.051-31.879-.675-.886c-1.495-1.96.991-1.818-31.83-1.818h-29.449l-1.618-2.463c-2.016-3.069-2.979-4.041-4.308-4.349-1.786-.414-35.789-.298-36.979.126m11.936 4.419c0 .289-.296.4-1.067.4-1.373 0-1.478.694-.146.967 2.426.496 2.014 2.904-.495 2.896-1.448-.005-1.974-.272-1.739-.884.203-.529.397-.548 1.311-.131.57.259.765.238 1.127-.124.405-.405.399-.451-.077-.62-2.065-.733-2.247-.869-2.247-1.677 0-1.017.592-1.376 2.133-1.292.86.047 1.2.179 1.2.465m9.576.134c.092.366.345.666.562.666s.395.12.395.267-.18.267-.4.267c-.289 0-.4.296-.4 1.066 0 .889.089 1.067.534 1.067.296 0 .533.178.533.4 0 .49-1.344.549-1.813.08-.176-.176-.32-.78-.32-1.342 0-1.171-.475-1.505-1.484-1.045-.549.25-.65.482-.65 1.501 0 1.037-.076 1.206-.545 1.206-.504 0-.54-.139-.467-1.8L158 74h1.467c1.318 0 1.475-.061 1.552-.6.114-.807.749-.763.957.067m-5.696.807c.923.477 1.108 1.995.345 2.838-1.163 1.286-3.818.021-3.429-1.634.34-1.442 1.642-1.95 3.084-1.204m10.387.126c.971.971.709 1.6-.667 1.6-.932 0-1.2.097-1.2.435 0 .348.186.405.928.284.978-.159 1.54.238.906.64-1.261.799-3.167-.168-3.167-1.606 0-1.545 2.114-2.439 3.2-1.353m3.6 0c0 .22-.27.438-.6.485-.451.064-.601.263-.604.8-.006 1.125-.292 1.915-.694 1.915-.279 0-.369-.452-.369-1.843v-1.843l1.133.043c.811.031 1.134.157 1.134.443m-15.803.576c-.726.726-.079 1.969.923 1.776.729-.141.678-1.924-.057-2.029-.295-.042-.685.072-.866.253m10.266-.15c-.316.316.076.641.775.641.419 0 .631-.126.563-.334-.123-.373-1.058-.588-1.338-.307m74.871 6.346c.177.062.267 9.102.267 26.594l-.001 26.501h-96.534l-.068-26.598-.068-26.599 17.802-.068c21.649-.083 78.23.039 78.602.17M191.323 84.6c-.07.183-.096 10.533-.059 23l.069 22.667h1.6l.074-22.4c.04-12.32.008-22.67-.072-23-.161-.664-1.384-.866-1.612-.267M198 88.078c-.656.371-1.099.831-1.152 1.196-.105.729.108.739 1.225.058 1.141-.695 1.326-.678 2.817.268 1.552.984 2.402 1.003 4.157.093l1.363-.707 1.82.733 1.82.732 2.062-.825c2.572-1.03 3.608-1.035 5.979-.026 2.262.963 3.821 1.025 6.048.242 1.647-.579 1.793-.575 5.061.137 1.918.417 4.078.274 6.215-.413 1.151-.371 1.085-1.195-.089-1.106l-3.071.234c-1.668.127-2.785.059-4.167-.256-1.808-.411-1.976-.406-3.988.124-2.542.67-3.999.577-6.031-.384-1.976-.935-3.815-.949-5.762-.042-1.649.768-2.924.841-4.092.237-1.121-.58-2.318-.536-3.629.134-1.447.738-1.846.709-3.343-.24-1.506-.955-1.851-.975-3.243-.189m-45.133.11-1.934.102v33.047l16.734-.068 16.733-.069.084-12c.046-6.6.004-14.049-.093-16.553l-.178-4.553-14.706-.004c-8.089-.002-15.577.042-16.64.098m20.245 1.945h9.559l-.069 14.6-.069 14.6-14.866.069-14.867.069v-14.624c0-8.044.09-14.72.2-14.837s2.529-.136 5.376-.044 9.478.167 14.736.167m42.088 6.923c-1.805.972-2.422.996-3.676.144-1.301-.884-2.376-.848-3.817.128-1.459.989-1.565.989-2.507.005-1.023-1.068-2.125-1.066-3.475.007l-1.015.807-.703-.674c-1.051-1.007-3.762-.187-3.072.929.239.387.818.323 1.196-.133.288-.347.432-.312 1.12.267 1.039.873 1.741.838 3.094-.157l1.117-.822.996.822c1.266 1.042 2.181 1.048 3.85.021l1.3-.8 1.418.8c1.8 1.016 2.332 1.004 4.576-.106l1.832-.906 1.416.695c1.353.664 1.482.679 2.949.348 3.511-.792 3.63-.799 5.635-.362 3.285.715 8.971-.595 7.235-1.667-.145-.09-1.292.041-2.549.29-1.982.394-2.527.409-4.1.112-1.911-.361-3.703-.278-6.182.284-1.385.314-1.576.297-2.608-.241-1.484-.774-2.281-.732-4.03.209m-10.88 6.691c-.337.135-1.139.607-1.781 1.049-1.374.945-1.756.988-2.406.271-.837-.925-3.066-.344-3.066.8 0 .369.891.335 1.276-.05.244-.244.454-.188.92.247 1.145 1.068 1.896 1.036 3.888-.168 2.206-1.333 2.508-1.346 3.81-.169 1.507 1.361 2.086 1.417 4.266.412 2.291-1.056 3.386-1.089 4.812-.145 2.486 1.645 3.804 1.78 7.359.753l2.492-.72 1.848.641c1.869.648 6.004.486 6.764-.266.45-.445-.065-1.142-.705-.956-1.818.527-4.448.493-5.769-.075-1.715-.738-2.444-.72-4.848.122-2.601.91-4.154.805-6.139-.418-2.274-1.4-3.41-1.357-7.37.282-.819.339-.905.316-1.733-.468-1.477-1.398-2.318-1.664-3.618-1.142m-.815 8.799c-.345.142-.964.497-1.374.789-.965.687-1.222.671-2.19-.143-.877-.738-1.565-.697-2.445.147-.795.763-.38 1.531.512.947.639-.418.71-.408 1.556.238 1.141.87 1.637.85 3.103-.124 1.5-.998 1.889-.998 3.026 0 1.128.991 2.043 1.022 3.947.136 1.767-.823 1.891-.823 3.908-.003l1.64.666 3.799-.666c4.443-.779 5.734-.819 7.686-.24 2.63.781 8.26.382 8.26-.586 0-.645-.696-.722-3.293-.365-2.261.31-2.609.296-4.057-.168-1.999-.641-5.594-.639-8.383.005-3.546.818-4.037.823-5.488.051-1.664-.886-2.151-.875-4.379.103-2.202.967-1.926.965-3.005.019-1.035-.91-1.94-1.168-2.823-.806m-4.838 10.58c-.908.341-1.867 1.21-1.867 1.692 0 .654.482.648 1.333-.018.892-.698 1.095-.67 1.917.267.905 1.031 1.455 1.007 3.114-.134 1.618-1.113 1.563-1.107 2.703-.266 1.092.806 1.821.836 3.2.133 1.379-.704 2.305-.671 3.6.126 1.263.779 2.634.853 4.657.252 1.131-.336 1.654-.363 2.566-.133 1.498.377 2.868.36 4.51-.056 1.21-.306 8.13-.409 10-.149 1.305.182.848-.925-.533-1.291-1.398-.37-7.424-.233-10.185.231-1.374.231-2.148.222-3.37-.037-1.443-.306-1.767-.283-3.572.253l-1.986.589-1.636-.826c-1.951-.985-2.118-.995-4.223-.256l-1.638.576-.927-.573c-1.249-.772-2.03-.721-3.423.222-1.449.982-1.435.982-2.548.005-.943-.828-1.026-.858-1.692-.607m-36.934 1.375c-.563.12-.8.328-.8.702 0 .807 15.934.836 16.09.029.053-.276-.066-.604-.263-.729-.411-.261-13.81-.262-15.027-.002m-2 4.432c-.914 1.102-.185 1.2 8.934 1.2 7.32 0 8.65-.059 8.933-.4.915-1.102.186-1.2-8.933-1.2-7.321 0-8.651.06-8.934.4m33.621 9.18c1.046 1.045 1.076 2.437.074 3.366-2.028 1.88-5.244-.786-3.666-3.039.899-1.284 2.49-1.429 3.592-.327m-11.586 9.687c-.088.33-.164.96-.168 1.4s-.168 1.333-.362 1.985l-.355 1.185 1.937.99c2.809 1.437 4.833 2.881 7.151 5.103l2.044 1.96 1.973-2.027c2.077-2.135 3.762-3.373 6.74-4.952.993-.526 1.843-.994 1.89-1.04s-.033-.546-.177-1.11c-.143-.565-.339-1.717-.436-2.561l-.177-1.533h-19.899zm-46.575 6.027a4080 4080 0 0 1-7.86 8.96c-5.914 6.725-5.848 6.625-4.613 7.066 9.913 3.539 14.275 4.61 29.413 7.222 16.813 2.901 25.331 6.305 32.807 13.11 2.281 2.077 5.179 5.237 5.554 6.057.234.513 1.245 1.091 1.907 1.091.206 0 1.089-.93 1.962-2.066 6.951-9.053 18.236-15.076 32.837-17.525 1.393-.234 3.733-.655 5.2-.936s4.407-.821 6.533-1.199c7.779-1.382 21.777-5.348 23.007-6.517.193-.184-15.311-17.917-15.834-18.112-.51-.19-.18.665.6 1.555 1.547 1.766 11.304 13.468 12.08 14.488.945 1.244 1.074 1.141-3.21 2.566-3.794 1.262-12.698 3.059-21.176 4.274-16.179 2.318-23.166 4.429-30.667 9.264-2.82 1.819-7.947 6.953-9.466 9.481-.587.976-1.157 1.779-1.267 1.785-.11.005-.2-6.153-.2-13.685 0-15.9-.061-16.973-.971-16.973h-.629v15.334c0 8.433-.09 15.329-.2 15.324s-.86-1.04-1.667-2.299c-6.562-10.244-17.611-15.058-42.133-18.357-9.331-1.255-21.331-4.026-22.501-5.196-.153-.153.044-.636.513-1.26 1.404-1.871 12.391-15.25 12.658-15.414.311-.192.356-.932.057-.932-.114 0-1.344 1.303-2.734 2.894m9.949-1.375c-.94 1.233-2.763.739 14.191 3.845 10.558 1.934 18.102 4.512 23.721 8.107 1.923 1.229 2.279 1.211 2.279-.119 0-1.16-.203-1.357-2.971-2.891-7.024-3.89-13.163-5.701-28.583-8.43l-7.954-1.408zm91.791-.836c-.146.059-3.88.765-8.297 1.57-15.299 2.786-19.419 4.058-27.503 8.489l-2.466 1.352v1.153c0 1.471.102 1.461 3.043-.286 7.198-4.276 12.454-5.855 30.29-9.099 7.635-1.389 7.408-1.304 6.596-2.466-.553-.791-.996-.981-1.663-.713m14.8 1.367c-.366.06-.829.165-1.027.232-.233.079.575 1.142 2.27 2.987 9.335 10.163 17.983 20.159 17.901 20.692-.086.558-.586.727-24.61 8.3-7.774 2.451-19.234 6.07-25.467 8.042s-12.713 4.007-14.4 4.521a128 128 0 0 0-5.324 1.759c-2.001.731-2.349.787-3.067.493-4.482-1.838-7.72-1.939-11.141-.348l-1.644.765-1.879-.739c-1.033-.407-3.738-1.294-6.012-1.972s-7.193-2.189-10.933-3.357l-10.133-3.165c-15.903-4.958-22.065-6.87-27.467-8.52-15.783-4.823-16.339-5.05-15.402-6.3 1.377-1.837 11.993-13.889 17.231-19.562 2.932-3.175 2.982-3.338 1.104-3.604l-1.2-.17-11.916 11.948c-12.244 12.276-12.62 12.719-11.987 14.107.366.804.066.69 9.77 3.743 4.4 1.385 10.46 3.302 13.467 4.26 6.68 2.13 7.743 2.463 16.133 5.043a6202 6202 0 0 1 22.8 7.064c7.819 2.448 12.916 3.998 13.148 3.998.136 0 .657.359 1.158.798 4.368 3.836 14.998 3.608 18.359-.394.148-.175 1.168-.573 2.268-.884 1.1-.31 8.3-2.566 16-5.012s15.5-4.921 17.334-5.5 4.413-1.394 5.733-1.813 4.68-1.481 7.467-2.36c16.229-5.122 24.663-7.811 25.645-8.179 1.256-.471 1.843-1.546 1.434-2.623-.417-1.097-23.742-24.438-24.38-24.397-.311.02-.866.086-1.233.147m-110.091 3.691c-.317.402-.575.88-.575 1.062 0 .38-.292.314 7.066 1.592 20.469 3.555 27.53 5.682 34.71 10.456 1.579 1.05 1.649 1.071 1.796.521.415-1.545.233-1.859-1.775-3.056-8.569-5.108-15.354-7.01-39.822-11.165-.674-.114-.932-.006-1.4.59m95.425-.104-8.667 1.596c-13.105 2.412-20.393 4.838-27.4 9.123-1.872 1.144-2.052 1.478-1.634 3.035.154.576.197.564 1.741-.485 6.946-4.717 14.654-7.165 32.226-10.237 10.409-1.82 9.739-1.616 9.026-2.742-.655-1.034-1.121-1.059-5.292-.29m6.933 3.88c-15.287 2.529-23.844 4.255-28.8 5.807-4.784 1.499-10.134 3.948-13.937 6.381l-1.533.981.172 1.124c.095.618.187 1.145.204 1.171.018.026.751-.442 1.63-1.04 1.921-1.306 7.596-4.084 10.985-5.377 4.983-1.901 8.845-2.804 21.812-5.097a9007 9007 0 0 0 9.267-1.641c1.283-.228 2.333-.533 2.333-.679 0-.359-1.058-1.822-1.284-1.777-.101.02-.482.086-.849.147m-105.881.904c-.837 1.174-.924 1.146 8.014 2.637 20.567 3.431 28.453 5.808 35.829 10.801 1.006.681 1.865 1.202 1.909 1.157.085-.088.201-1.754.156-2.244-.054-.596-5.455-3.619-9.468-5.3-4.373-1.832-11.18-3.686-18.026-4.909-4.391-.784-17.335-2.963-17.603-2.963-.125 0-.49.37-.811.821m23.037 9.159c-.566 1.187-.93.975 3.911 2.273 6.56 1.758 11.191 3.779 15.704 6.855 1.377.938 2.531 1.673 2.563 1.633s.137-.586.233-1.211l.174-1.137-2.321-1.513c-5.034-3.281-11.488-5.919-18.087-7.393a25 25 0 0 1-1.263-.316c-.333-.099-.589.127-.914.809m56.177.257c-6.045 1.794-11.163 4.099-15.25 6.867-1.841 1.247-1.887 1.315-1.666 2.492.226 1.208.202 1.214 2.971-.638 4.568-3.056 10.969-5.799 16.879-7.233 3.06-.743 2.859-.589 2.249-1.723-.621-1.153-.485-1.159-5.183.235m43.067.877c-8.499 2.892-13.139 4.082-26.8 6.869-17.053 3.48-22.948 5.607-30.692 11.072-2.511 1.773-7.975 6.856-7.975 7.42 0 .65.543.279 3.236-2.216 8.5-7.872 16.255-11.259 33.831-14.78 15.958-3.196 32.334-7.89 31.611-9.061-.216-.35-.005-.395-3.211.696m-140.112-.339c-.25.301.097.514 1.903 1.167 8.492 3.07 16.747 5.191 30.342 7.795 16.557 3.172 24.557 6.654 33.419 14.545 4.099 3.649 4.197 2.702.114-1.1-8.691-8.092-16.552-11.311-37.399-15.311-9.563-1.835-25.668-6.087-27.903-7.368-.094-.053-.308.069-.476.272m143.312 2.168c-1.948.705-11.962 3.824-14.4 4.486-1.32.358-3.78 1.035-5.467 1.505s-6.906 1.789-11.6 2.932c-13.735 3.345-17.508 4.542-23.466 7.447-5.063 2.469-11.272 6.725-11.553 7.921-.142.603.173.441 2.401-1.238 7.135-5.376 14.768-8.529 29.418-12.15 15.19-3.755 22.161-5.751 34.067-9.754 1.482-.499 2.6-1.022 2.6-1.216 0-.44-.661-.418-2 .067m-145.2.23c0 .356 4.627 2.007 12.702 4.532 4.336 1.356 14.062 3.984 18.365 4.963 19.286 4.384 27.013 7.338 34.987 13.373 2.597 1.966 3.475 1.749 1.064-.263-5.526-4.613-12.651-8.121-21.712-10.69-3.496-.991-5.568-1.502-16.339-4.03-2.567-.602-5.447-1.316-6.4-1.586a626 626 0 0 0-5.334-1.469c-1.98-.537-6.559-1.928-10.175-3.09-7.099-2.281-7.158-2.295-7.158-1.74m141.867 3.809c-12.04 3.981-14.271 4.621-31.334 8.987-14.566 3.726-20.897 6.058-26.763 9.855-3.24 2.097-3.597 2.187 15.297-3.823 15.759-5.013 49.52-16.221 49.853-16.55.899-.889-.946-.489-7.053 1.531m-143.748-1.632c-.346.418.666.783 16.948 6.106 7.04 2.302 13.28 4.35 13.866 4.55s2.867.924 5.067 1.608c2.2.685 5.8 1.824 8 2.532 2.2.707 5.44 1.723 7.2 2.256 1.76.534 3.86 1.196 4.667 1.471s2.726.876 4.266 1.335 3.747 1.128 4.905 1.487c2.708.839 2.791.682.442-.838-6.319-4.087-13.323-6.531-30.547-10.656-12.134-2.906-16.992-4.326-32.604-9.531-1.506-.502-1.999-.573-2.21-.32"/>
</svg>
