<?xml version="1.0" standalone="no"?>
<!DOCTYPE svg PUBLIC "-//W3C//DTD SVG 20010904//EN"
 "http://www.w3.org/TR/2001/REC-SVG-20010904/DTD/svg10.dtd">
<svg version="1.0" xmlns="http://www.w3.org/2000/svg"
 width="800.000000pt" height="800.000000pt" viewBox="0 0 800.000000 800.000000"
 preserveAspectRatio="xMidYMid meet">

<g transform="translate(0.000000,800.000000) scale(0.100000,-0.100000)"
fill="#a1a1a1" stroke="none">
<path d="M1838 5338 c-2 -997 -2 -1816 0 -1820 2 -5 977 -8 2168 -8 l2164 0 0
1820 0 1820 -2165 0 -2164 0 -3 -1812z m4232 190 c0 -1283 -2 -1530 -13 -1518
-8 8 -87 130 -177 270 -226 351 -343 533 -1024 1590 -48 74 -91 139 -95 143
-5 5 -83 -112 -174 -260 -90 -147 -267 -434 -392 -638 -125 -203 -274 -444
-330 -535 -56 -91 -151 -245 -211 -343 l-109 -178 -25 32 c-27 34 -278 375
-552 749 -384 523 -399 543 -413 529 -7 -8 -128 -192 -270 -409 -142 -217
-278 -424 -302 -460 l-43 -65 0 1313 0 1312 2065 0 2065 0 0 -1532z m-1238
197 c36 -55 177 -273 313 -485 136 -212 293 -455 348 -540 55 -85 129 -200
164 -255 36 -55 143 -221 239 -370 l175 -270 -3 -95 -3 -95 -2062 -3 -2063 -2
0 323 0 323 183 277 c100 152 241 367 312 477 72 110 132 199 135 199 3 0 142
-187 310 -415 585 -798 660 -899 668 -902 4 -1 277 436 607 972 330 536 603
972 606 968 4 -4 36 -52 71 -107z"/>
<path d="M3259 6439 c-228 -35 -379 -276 -313 -500 83 -284 445 -379 653 -171
273 273 42 729 -340 671z m198 -124 c57 -28 101 -73 135 -138 19 -34 23 -58
23 -127 0 -69 -4 -93 -23 -127 -58 -110 -149 -167 -266 -167 -285 -1 -406 358
-180 531 88 67 208 78 311 28z"/>
<path d="M1670 2610 l0 -380 70 0 70 0 2 245 3 244 150 -244 150 -245 78 0 77
0 0 380 0 380 -70 0 -70 0 0 -252 c-1 -215 -3 -250 -14 -235 -8 10 -78 123
-157 252 l-143 235 -73 0 -73 0 0 -380z"/>
<path d="M3380 2925 l0 -65 70 0 70 0 0 65 0 65 -70 0 -70 0 0 -65z"/>
<path d="M2577 2773 c-104 -39 -166 -126 -175 -243 -13 -187 100 -310 286
-310 113 0 213 65 258 167 23 51 23 185 0 236 -23 51 -81 114 -130 139 -57 30
-174 35 -239 11z m173 -119 c46 -28 65 -70 65 -149 0 -111 -46 -168 -135 -168
-79 0 -130 65 -130 166 0 70 18 116 56 145 35 26 104 29 144 6z"/>
<path d="M3885 2773 c-16 -8 -42 -27 -57 -41 l-28 -26 0 37 0 37 -70 0 -70 0
0 -275 0 -275 75 0 75 0 0 175 c0 189 8 228 51 259 13 9 40 16 61 16 66 0 72
-21 76 -252 l4 -198 69 0 69 0 0 163 c0 89 5 179 11 201 21 77 97 110 150 67
24 -19 24 -23 27 -225 l3 -206 70 0 70 0 -3 229 c-3 214 -4 232 -24 257 -32
44 -68 66 -117 71 -67 8 -109 -3 -160 -42 l-44 -34 -24 26 c-48 52 -151 70
-214 36z"/>
<path d="M4716 2775 c-22 -9 -48 -23 -59 -33 -19 -17 -57 -84 -57 -100 0 -5
29 -13 65 -18 36 -6 65 -6 65 -2 0 5 11 20 25 33 19 20 34 25 72 25 63 0 93
-21 93 -64 l0 -33 -118 -27 c-143 -32 -177 -51 -204 -113 -49 -112 18 -213
147 -221 70 -5 110 6 162 45 l31 23 7 -30 7 -30 73 0 74 0 -16 38 c-13 29 -16
77 -18 223 -1 212 -8 235 -80 273 -52 27 -209 33 -269 11z m204 -337 c0 -29
-6 -60 -13 -68 -58 -74 -177 -61 -177 18 0 44 20 62 95 82 99 26 95 27 95 -32z"/>
<path d="M5309 2767 c-92 -49 -136 -150 -126 -290 9 -134 86 -231 193 -243 63
-8 114 8 160 48 l34 30 0 -71 c0 -63 -3 -75 -25 -96 -21 -21 -33 -25 -89 -25
-58 0 -67 3 -82 24 -16 25 -30 30 -121 41 l-53 7 0 -35 c0 -45 35 -95 85 -121
30 -16 64 -22 140 -24 158 -6 226 23 269 118 19 42 21 67 24 348 l4 302 -71 0
-71 0 0 -37 0 -37 -27 27 c-64 60 -167 75 -244 34z m206 -109 c38 -29 55 -76
55 -148 0 -100 -46 -160 -124 -160 -50 0 -78 18 -100 64 -21 44 -21 157 -1
200 31 64 116 86 170 44z"/>
<path d="M5970 2769 c-59 -26 -86 -53 -118 -114 -24 -44 -27 -61 -27 -150 0
-114 18 -166 75 -222 50 -49 104 -66 198 -62 66 3 86 9 128 34 41 26 93 90 94
116 0 8 -27 15 -92 24 -44 7 -47 6 -62 -23 -43 -82 -177 -47 -193 52 l-6 36
183 0 183 0 -6 74 c-12 160 -106 256 -252 256 -39 0 -76 -8 -105 -21z m169
-105 c13 -9 29 -32 37 -50 27 -63 26 -64 -97 -64 l-112 0 6 38 c12 76 105 118
166 76z"/>
<path d="M3380 2505 l0 -275 70 0 70 0 0 275 0 275 -70 0 -70 0 0 -275z"/>
<path d="M3570 1781 l0 -69 80 -4 80 -3 0 73 0 72 -80 0 -80 0 0 -69z"/>
<path d="M3892 1438 l3 -413 78 -3 77 -3 0 416 0 415 -80 0 -80 0 2 -412z"/>
<path d="M4850 1435 l0 -415 75 0 75 0 0 42 0 42 28 -26 c48 -45 92 -62 162
-63 53 0 73 5 111 27 52 31 103 99 121 162 15 55 14 201 -1 251 -53 167 -235
232 -371 134 l-40 -29 0 145 0 145 -80 0 -80 0 0 -415z m369 52 c37 -34 51
-79 51 -162 0 -123 -42 -188 -121 -187 -46 1 -79 20 -113 66 -18 23 -21 42
-21 126 0 84 3 103 21 127 46 64 131 77 183 30z"/>
<path d="M5570 1435 l0 -415 75 0 75 0 0 415 0 415 -75 0 -75 0 0 -415z"/>
<path d="M1799 1630 c-55 -9 -96 -30 -125 -62 -28 -30 -56 -86 -50 -97 3 -5
28 -11 56 -15 28 -4 57 -9 64 -12 9 -4 20 6 30 24 19 37 69 56 123 46 51 -9
73 -30 73 -70 0 -37 -2 -38 -149 -69 -41 -8 -92 -24 -115 -34 -164 -72 -127
-300 52 -327 60 -9 142 11 190 46 l40 28 9 -31 9 -32 77 -3 c42 -2 77 0 77 3
0 4 -6 16 -12 28 -8 15 -14 97 -18 242 -5 195 -8 224 -25 253 -27 46 -69 69
-145 81 -72 12 -94 12 -161 1z m171 -370 c0 -66 -16 -98 -62 -121 -43 -22 -70
-24 -101 -7 -31 16 -46 39 -47 71 0 35 29 63 77 76 79 19 118 29 126 30 4 1 7
-21 7 -49z"/>
<path d="M3080 1629 c-30 -5 -71 -21 -91 -34 -39 -27 -84 -98 -76 -119 3 -7
25 -16 49 -20 23 -4 52 -9 64 -12 15 -4 23 2 32 21 16 35 73 58 124 50 49 -9
78 -36 78 -73 0 -33 -13 -38 -154 -67 -149 -31 -205 -74 -214 -165 -6 -63 12
-112 53 -149 70 -61 176 -65 272 -11 30 17 56 30 57 28 1 -2 7 -15 14 -30 11
-27 15 -28 82 -28 75 0 83 7 58 53 -7 14 -14 103 -17 244 -6 219 -6 222 -31
249 -53 57 -180 84 -300 63z m180 -366 c0 -60 -16 -91 -59 -120 -60 -40 -128
-24 -149 34 -12 35 0 68 30 84 19 11 143 46 171 48 4 1 7 -20 7 -46z"/>
<path d="M4369 1630 c-55 -10 -96 -30 -126 -62 -26 -27 -56 -95 -45 -101 4 -3
29 -8 56 -12 27 -3 54 -9 61 -11 7 -3 21 8 31 25 22 37 70 54 126 45 42 -7 63
-26 73 -66 9 -34 0 -39 -145 -72 -64 -15 -130 -35 -148 -46 -90 -55 -104 -190
-28 -266 73 -73 228 -69 312 8 l22 20 12 -36 12 -36 74 0 c77 0 84 4 62 43 -9
15 -14 95 -18 244 -6 252 -8 259 -91 300 -50 25 -168 36 -240 23z m177 -377
c-8 -70 -27 -100 -71 -119 -52 -21 -83 -17 -116 15 -59 60 -28 108 91 139 109
29 104 31 96 -35z"/>
<path d="M6060 1631 c-87 -18 -154 -74 -194 -161 -16 -36 -21 -66 -21 -145 0
-111 15 -161 66 -226 76 -96 268 -118 382 -43 33 21 97 104 97 125 0 3 -35 12
-77 19 -64 10 -78 10 -82 -1 -2 -8 -17 -26 -32 -41 -53 -53 -146 -30 -180 45
-36 81 -45 77 182 77 l202 0 -6 63 c-9 88 -32 156 -67 199 -55 67 -180 108
-270 89z m105 -125 c40 -17 75 -68 75 -109 l0 -28 -117 3 -118 3 3 30 c5 42
31 82 66 99 39 19 48 19 91 2z"/>
<path d="M2223 1588 c7 -18 62 -154 122 -301 l108 -268 70 3 69 3 84 210 c46
116 100 249 118 298 l35 87 -80 0 -79 0 -14 -35 c-9 -20 -41 -107 -73 -195
-51 -140 -73 -185 -73 -150 0 6 -30 94 -67 195 l-67 185 -83 0 -83 0 13 -32z"/>
<path d="M3572 1323 l3 -298 78 -3 77 -3 0 301 0 300 -80 0 -80 0 2 -297z"/>
</g>
</svg>
